# xmcd
#
# Track frame offsets:
#	150
#	15838
#	33456
#	53046
#	68693
#	84461
#	103421
#	114127
#	128369
#	140471
#	156335
#
# Disc length: 2268 seconds
#
# Revision: 1
# Processed by: cddbd v1.5.2PL0 Copyright (c) Steve Scherf et al.
# Submitted via: audiograbber 1.83.01
#
DISCID=8108da0b
DTITLE=Brian McComas - Back Up Again
DYEAR=2006
DGENRE=Country
TTITLE0=Back Up Again
TTITLE1=I'll Believe It When I See It
TTITLE2=Off My Mind
TTITLE3=Good, Good Lovin
TTITLE4=Let Love Lead The Way
TTITLE5=All Comes Floodin Down
TTITLE6=It'll Be Alright
TTITLE7=That Won't Ever Change
TTITLE8=Wake Up Little Susie
TTITLE9=Too Far Gone
TTITLE10=Addicted To You
EXTD=
EXTT0=
EXTT1=
EXTT2=
EXTT3=
EXTT4=
EXTT5=
EXTT6=
EXTT7=
EXTT8=
EXTT9=
EXTT10=
PLAYORDER=
